<svg width="309" height="163" version="1.1" xmlns="http://www.w3.org/2000/svg" desc="Created with imagetracer.js version 1.2.6" ><path fill="rgb(226,241,249)" stroke="rgb(226,241,249)" stroke-width="1" opacity="1" d="M 87.5 5 L 88 79.5 L 87 79.5 L 87.5 5 Z " /><path fill="rgb(226,241,249)" stroke="rgb(226,241,249)" stroke-width="1" opacity="1" d="M 221.5 5 L 222 79.5 L 221 79.5 L 221.5 5 Z " /><path fill="rgb(226,241,249)" stroke="rgb(226,241,249)" stroke-width="1" opacity="1" d="M 39.5 26 L 38.5 28 L 39.5 26 Z " /><path fill="rgb(226,241,249)" stroke="rgb(226,241,249)" stroke-width="1" opacity="1" d="M 113.5 26 L 112.5 28 L 113.5 26 Z " /><path fill="rgb(226,241,249)" stroke="rgb(226,241,249)" stroke-width="1" opacity="1" d="M 195.5 26 L 196.5 28 L 195.5 26 Z " /><path fill="rgb(226,241,249)" stroke="rgb(226,241,249)" stroke-width="1" opacity="1" d="M 269.5 26 L 270.5 28 L 269.5 26 Z " /><path fill="rgb(226,241,249)" stroke="rgb(226,241,249)" stroke-width="1" opacity="1" d="M 110.5 31 L 111 64.5 L 110 64.5 L 110.5 31 Z " /><path fill="rgb(226,241,249)" stroke="rgb(226,241,249)" stroke-width="1" opacity="1" d="M 124.5 31 L 125 65.5 L 124 65.5 L 124.5 31 Z " /><path fill="rgb(226,241,249)" stroke="rgb(226,241,249)" stroke-width="1" opacity="1" d="M 184.5 31 L 185 65.5 L 184 65.5 L 184.5 31 Z " /><path fill="rgb(226,241,249)" stroke="rgb(226,241,249)" stroke-width="1" opacity="1" d="M 198.5 31 L 199 64.5 L 198 64.5 L 198.5 31 Z " /><path fill="rgb(226,241,249)" stroke="rgb(226,241,249)" stroke-width="1" opacity="1" d="M 147.5 49 L 148 65.5 L 147 65.5 L 147.5 49 Z " /><path fill="rgb(226,241,249)" stroke="rgb(226,241,249)" stroke-width="1" opacity="1" d="M 161.5 49 L 162 65.5 L 161 65.5 L 161.5 49 Z " /><path fill="rgb(226,241,249)" stroke="rgb(226,241,249)" stroke-width="1" opacity="1" d="M 12.5 68 L 10.5 71 L 12.5 68 Z " /><path fill="rgb(226,241,249)" stroke="rgb(226,241,249)" stroke-width="1" opacity="1" d="M 49.5 68 L 47.5 71 L 49.5 68 Z " /><path fill="rgb(226,241,249)" stroke="rgb(226,241,249)" stroke-width="1" opacity="1" d="M 259.5 68 L 261.5 71 L 259.5 68 Z " /><path fill="rgb(226,241,249)" stroke="rgb(226,241,249)" stroke-width="1" opacity="1" d="M 296.5 68 L 298.5 71 L 296.5 68 Z " /><path fill="rgb(226,241,249)" stroke="rgb(226,241,249)" stroke-width="1" opacity="1" d="M 5.5 71 L 8 71.5 L 5.5 72 L 5.5 71 Z " /><path fill="rgb(226,241,249)" stroke="rgb(226,241,249)" stroke-width="1" opacity="1" d="M 42.5 71 L 45 71.5 L 42.5 72 L 42.5 71 Z " /><path fill="rgb(226,241,249)" stroke="rgb(226,241,249)" stroke-width="1" opacity="1" d="M 116.5 71 L 119 71.5 L 116.5 72 L 116.5 71 Z " /><path fill="rgb(226,241,249)" stroke="rgb(226,241,249)" stroke-width="1" opacity="1" d="M 153.5 71 L 156 71.5 L 153.5 72 L 153.5 71 Z " /><path fill="rgb(226,241,249)" stroke="rgb(226,241,249)" stroke-width="1" opacity="1" d="M 190.5 71 L 193 71.5 L 190.5 72 L 190.5 71 Z " /><path fill="rgb(226,241,249)" stroke="rgb(226,241,249)" stroke-width="1" opacity="1" d="M 264.5 71 L 267 71.5 L 264.5 72 L 264.5 71 Z " /><path fill="rgb(226,241,249)" stroke="rgb(226,241,249)" stroke-width="1" opacity="1" d="M 301.5 71 L 304 71.5 L 301.5 72 L 301.5 71 Z " /><path fill="rgb(226,241,249)" stroke="rgb(226,241,249)" stroke-width="1" opacity="1" d="M 151.5 108 L 153 109.5 L 153 121 L 151 120.5 L 152 119.5 L 152 109.5 L 151.5 108 Z " /><path fill="rgb(226,241,249)" stroke="rgb(226,241,249)" stroke-width="1" opacity="1" d="M 210.5 109 L 211 124 L 209 123.5 L 210 122.5 L 210.5 109 Z " /><path fill="rgb(226,241,249)" stroke="rgb(226,241,249)" stroke-width="1" opacity="1" d="M 124.5 111 L 122.5 114 L 124.5 111 Z " /><path fill="rgb(226,241,249)" stroke="rgb(226,241,249)" stroke-width="1" opacity="1" d="M 271.5 113 L 274.5 117 L 271.5 113 Z " /><path fill="rgb(226,241,249)" stroke="rgb(226,241,249)" stroke-width="1" opacity="1" d="M 34.5 116 L 33.5 118 L 34.5 116 Z " /><path fill="rgb(226,241,249)" stroke="rgb(226,241,249)" stroke-width="1" opacity="1" d="M 243.5 124 L 242.5 126 L 243.5 124 Z " /><path fill="rgb(226,241,249)" stroke="rgb(226,241,249)" stroke-width="1" opacity="1" d="M 27.5 133 L 28 136.5 L 27 136.5 L 27.5 133 Z " /><path fill="rgb(226,241,249)" stroke="rgb(226,241,249)" stroke-width="1" opacity="1" d="M 266.5 133 L 267 136.5 L 266 136.5 L 266.5 133 Z " /><path fill="rgb(226,241,249)" stroke="rgb(226,241,249)" stroke-width="1" opacity="1" d="M 281.5 133 L 282 136.5 L 281 136.5 L 281.5 133 Z " /><path fill="rgb(226,241,249)" stroke="rgb(226,241,249)" stroke-width="1" opacity="1" d="M 242.5 144 L 243.5 146 L 242.5 144 Z " /><path fill="rgb(226,241,249)" stroke="rgb(226,241,249)" stroke-width="1" opacity="1" d="M 209.5 146 L 211 146.5 L 211 160.5 L 210 160.5 L 210 147.5 L 209.5 146 Z " /><path fill="rgb(226,241,249)" stroke="rgb(226,241,249)" stroke-width="1" opacity="1" d="M 127.5 150 L 130 150.5 L 127.5 151 L 127.5 150 Z " /><path fill="rgb(226,241,249)" stroke="rgb(226,241,249)" stroke-width="1" opacity="1" d="M 275.5 152 L 271.5 157 L 275.5 152 Z " /><path fill="rgb(226,241,249)" stroke="rgb(226,241,249)" stroke-width="1" opacity="1" d="M 124.5 162 L 127 162.5 L 124.5 163 L 124.5 162 Z " /><path fill="rgb(255,255,255)" stroke="rgb(255,255,255)" stroke-width="1" opacity="1" d="M 0 0 L 77 0.5 L 74 3.5 L 74 81.5 Q 75.9 86.1 83.5 85 L 88 79.5 L 88 5.5 L 84 0.5 L 224.5 0 L 222 3.5 L 221 5.5 L 221 79.5 L 224.5 84 L 230.5 85 L 235 81.5 L 235 3.5 L 232 0.5 L 309 0 L 308.5 47 Q 307 42.5 299.5 44 L 297 45 L 295 49.5 L 295 66.5 L 298.5 71 L 303.5 72 L 308.5 68 L 309 163 L 259 162.5 Q 270.1 160.1 276 152.5 L 281 142.5 L 282 133.5 L 278 120.5 L 271.5 113 Q 263.9 105.6 247.5 107 Q 234.9 109.4 229 118.5 L 224 130.5 L 224 139.5 Q 226.4 152.1 235.5 158 Q 239.8 161.8 247 162.5 L 205.5 163 L 205.5 162 L 211 161 L 211 146.5 L 209.5 146 Q 205 150 195.5 149 Q 189 147.5 186 142.5 L 184 133.5 Q 185.1 126.1 190.5 123 Q 194.5 120 202.5 121 L 211 124 L 211 109.5 L 209.5 109 Q 203.4 105.1 191.5 107 Q 178.9 109.9 173 119.5 Q 167.4 126.4 169 140.5 L 176 155 L 185.5 161 L 192 162.5 L 140.5 163 L 140.5 162 L 146.5 161 L 154 154.5 Q 157.8 149.8 156 139.5 L 148.5 131 L 138.5 128 L 134 124.5 Q 133.3 120.8 135.5 120 L 145.5 119 L 153 121 L 153 109.5 L 151.5 108 L 133.5 107 Q 125.9 108.4 122 113.5 Q 117.5 118 119 128.5 L 125.5 137 L 141 143 Q 142.3 148.5 138.5 150 L 130.5 151 L 119 149 L 119 162 L 123.5 162 L 123.5 163 L 63 162.5 Q 67.6 163.1 69 160.5 L 68.5 146 Q 63.7 150.2 53.5 149 L 46 144.5 Q 41.8 140.7 43 131.5 L 47.5 124 Q 52 119.9 61.5 121 L 68.5 124 L 69 109.5 Q 63 105 50.5 107 Q 39.3 109.8 33 117.5 L 28 127.5 L 27 136.5 L 31 149.5 L 37.5 157 L 46.5 162 L 50 162.5 L 0 163 L 0.5 68 Q 2.4 71.6 7.5 72 L 13 68.5 L 14 66.5 L 14 49.5 L 12 45 Q 9.6 43.3 3.5 44 L 0 46.5 L 0 0 Z M 42 25 L 40 26 L 37 30 L 37 68 L 43 72 L 48 71 L 51 66 L 51 31 L 50 29 Q 48 24 42 25 Z M 116 25 L 114 26 L 110 32 L 110 65 L 111 68 L 117 72 L 123 70 L 125 66 L 125 32 L 124 29 Q 122 24 116 25 Z M 190 25 L 188 26 L 184 32 L 184 66 L 186 70 L 191 72 L 195 71 L 199 65 L 199 32 L 197 28 Q 195 24 190 25 Z M 264 25 L 262 26 L 258 31 L 258 66 L 259 69 L 265 72 Q 270 72 272 68 L 272 30 L 271 28 Q 269 24 264 25 Z M 152 44 L 147 50 L 147 66 L 149 70 L 154 72 L 160 70 L 162 66 L 162 50 L 161 48 Q 160 43 152 44 Z M 87 108 L 87 162 L 88 162 L 101 162 L 101 109 L 101 108 L 87 108 Z " /><path fill="rgb(255,255,255)" stroke="rgb(255,255,255)" stroke-width="1" opacity="1" d="M 250.5 121 Q 260.5 120.5 264 126.5 Q 267.5 130.5 266 139.5 L 261.5 146 Q 258 149.5 250.5 149 Q 244 147.5 241 142.5 Q 238.3 139.2 239 132.5 Q 240.5 126 245.5 123 L 250.5 121 Z " /><path fill="rgb(4,158,216)" stroke="rgb(4,158,216)" stroke-width="1" opacity="1" d="M 80.5 0 L 84.5 3 L 86 2.5 L 85.5 4 L 87 4.5 L 86 5.5 L 86 79.5 L 86.5 81 L 80.5 85 Q 78.8 81.9 77 83.5 L 74 79.5 L 75 78.5 L 75 6.5 L 74 5.5 L 77.5 2 L 80.5 0 Z " /><path fill="rgb(4,158,216)" stroke="rgb(4,158,216)" stroke-width="1" opacity="1" d="M 227.5 0 L 235 5.5 L 234 6.5 L 234 78.5 L 235 79.5 L 232 82.5 L 231.5 84 Q 230 81.5 228.5 85 L 226.5 83 L 222 80.5 L 223 79.5 L 223 5.5 L 222.5 4 L 224 3.5 L 223.5 2 L 224.5 3 L 227.5 0 Z " /><path fill="rgb(4,158,216)" stroke="rgb(4,158,216)" stroke-width="1" opacity="1" d="M 40.5 26 L 42.5 27 L 44.5 27 L 46.5 26 L 48.5 29 L 50 29.5 L 49 30.5 L 49 67.5 L 46.5 70 L 41.5 71 L 40.5 69 Q 39.3 71.3 38 68.5 L 38.5 67 Q 36.3 67.8 37 65.5 L 38 64.5 L 38 31.5 L 37.5 30 L 39 29.5 L 38.5 28 Q 41 28.7 40.5 26 Z " /><path fill="rgb(4,158,216)" stroke="rgb(4,158,216)" stroke-width="1" opacity="1" d="M 114.5 26 L 116.5 27 L 118.5 27 L 120.5 26 L 123 29.5 L 123 66.5 L 121.5 70 Q 116.7 68.8 115.5 71 L 114.5 69 Q 113.3 71.3 112 68.5 L 112.5 67 L 111 66.5 L 112 65.5 L 112 31.5 L 111.5 30 Q 113.8 30.8 113 28.5 L 114.5 26 Z " /><path fill="rgb(4,158,216)" stroke="rgb(4,158,216)" stroke-width="1" opacity="1" d="M 188.5 26 L 190.5 27 L 192.5 27 L 194.5 26 L 196 30 L 198 30.5 L 197 31.5 L 197 65.5 L 197.5 67 L 196 67.5 Q 198.3 68.8 195.5 70 L 194 69.5 L 193.5 71 Q 192.2 68.8 187.5 70 L 186 68.5 L 186 66.5 L 186 29.5 L 188.5 26 Z " /><path fill="rgb(4,158,216)" stroke="rgb(4,158,216)" stroke-width="1" opacity="1" d="M 262.5 26 L 264.5 27 L 266.5 27 L 268.5 26 L 269 28 L 271 28.5 L 270.5 30 L 272 30.5 L 271 31.5 L 271 64.5 L 272 67 L 270 67.5 Q 272.2 68.8 269.5 70 L 268 69.5 L 267.5 71 L 262.5 70 L 260 67.5 L 260 30.5 L 259 29.5 L 262 27.5 L 262.5 26 Z " /><path fill="rgb(4,158,216)" stroke="rgb(4,158,216)" stroke-width="1" opacity="1" d="M 5.5 44 L 7.5 45 L 9 44.5 L 9.5 46 Q 10.8 43.8 12 46.5 L 12 66.5 L 13 67.5 L 9.5 70 L 4.5 71 L 3.5 69 L 2 69.5 L 3 68.5 L 0 65.5 L 0 49.5 L 5.5 44 Z " /><path fill="rgb(4,158,216)" stroke="rgb(4,158,216)" stroke-width="1" opacity="1" d="M 152.5 44 L 155.5 45 L 157 44.5 L 157.5 46 Q 158.8 43.8 160 46.5 L 159.5 48 L 161 48.5 L 160 49.5 L 160 66.5 L 159 67.5 Q 161.3 68.8 158.5 70 L 150.5 70 L 149 68.5 L 149 66.5 L 149 49.5 L 148 48.5 L 150 47.5 Q 147.7 46.3 150.5 45 L 152 45.5 L 152.5 44 Z " /><path fill="rgb(4,158,216)" stroke="rgb(4,158,216)" stroke-width="1" opacity="1" d="M 300.5 44 L 302.5 45 L 303.5 44 L 309 49.5 L 309 65.5 L 306 68.5 L 306.5 70 L 305 69.5 L 304.5 71 L 299.5 70 L 296 67.5 L 297 66.5 L 297 46.5 L 298.5 45 L 300 45.5 L 300.5 44 Z " /><path fill="rgb(4,158,216)" stroke="rgb(4,158,216)" stroke-width="1" opacity="1" d="M 48.5 108 L 52.5 109 Q 54 106.5 59.5 108 L 63.5 109 Q 65 106.5 66.5 110 L 68 110.5 L 68 121.5 L 68.5 123 Q 65.9 123.7 67 121 L 64.5 121 L 61.5 120 L 59.5 120 L 54.5 121 L 52.5 120 L 48 122 L 45.5 126 L 43 127.5 L 43.5 129 Q 41.3 128.3 42 130.5 L 42 132.5 L 41 135.5 L 43 138.5 L 42 141 L 44 141.5 Q 41.8 142.8 44.5 144 L 48 146.5 Q 47.3 148.8 49.5 148 L 53.5 150 L 55.5 150 L 60.5 149 L 63.5 150 L 67 149 Q 65.9 146.3 68.5 147 L 68 148.5 L 68 159.5 L 66.5 160 Q 65 163.5 63.5 161 L 53.5 162 L 49.5 161 L 48 161.5 Q 48.8 159.3 46.5 160 L 45 160.5 L 44.5 159 L 43 159.5 L 42.5 158 L 41 158.5 L 40.5 157 L 39 157.5 L 34.5 152 L 33 152 Q 34.5 148.2 31.5 149 L 31.5 147 L 30 146.5 L 30 142.5 L 28 139.5 Q 30.8 137.8 29 131.5 Q 26.5 130 30 128.5 L 29 126.5 Q 32.1 124.8 30.5 123 L 32 122.5 L 31.5 121 L 34 119.5 L 33.5 118 L 38 114.5 L 38 113 Q 41.8 114.5 41 111.5 L 43.5 111 Q 45.8 111.8 45 109.5 L 46.5 110 Q 49 110.7 48.5 108 Z " /><path fill="rgb(4,158,216)" stroke="rgb(4,158,216)" stroke-width="1" opacity="1" d="M 88.5 108 L 100.5 108 L 101 108.5 L 101 162 L 88 161.5 L 88 159.5 L 88 110.5 L 89 109.5 L 88.5 108 Z " /><path fill="rgb(4,158,216)" stroke="rgb(4,158,216)" stroke-width="1" opacity="1" d="M 131.5 108 L 135.5 109 Q 137 106.5 142.5 108 L 147.5 109 Q 149.3 106.3 151 110.5 L 150.5 120 L 146.5 118 L 142.5 119 L 140.5 119 L 136 118 Q 137.3 121 133.5 120 L 133.5 122 Q 131.3 121.3 132 123.5 L 135.5 128 L 137 127.5 Q 136.2 130.1 139.5 129 L 141.5 130 L 143 129.5 Q 142.2 132.1 145.5 131 L 148 131.5 L 149.5 134 Q 151.2 131.3 153 135.5 Q 150.5 137 154 138.5 L 156 142.5 L 155 146.5 Q 157.5 148 154 149.5 L 155 151.5 L 153 152.5 L 153.5 154 L 144.5 161 L 140.5 161 L 129.5 162 Q 128.3 159.8 123.5 161 Q 121.8 163.8 120 159.5 L 120 151 L 123.5 151 Q 125 148.5 126.5 152 L 136.5 152 L 138.5 150 L 140 150.5 L 141.5 148 L 143 148 L 143 144 L 140 142.5 Q 140.8 140.3 138.5 141 L 136 140.5 Q 136.8 138.3 134.5 139 L 133 139.5 Q 133.8 137.3 131.5 138 L 130 138.5 L 129.5 137 L 128 137.5 L 127.5 136 L 126 136.5 L 122.5 132 L 121 131.5 L 121.5 130 L 120 129.5 L 121 127.5 Q 118.3 126.8 119 122.5 L 123 115.5 L 122.5 114 L 125 112.5 L 125.5 111 Q 127 113.5 128.5 110 Q 132 111 131.5 108 Z " /><path fill="rgb(4,158,216)" stroke="rgb(4,158,216)" stroke-width="1" opacity="1" d="M 190.5 108 L 193.5 109 Q 195 106.5 200.5 108 L 205.5 109 L 207 108.5 L 207 110 L 209 110.5 L 209 121.5 L 206.5 122 L 204.5 120 L 201.5 121 L 197.5 120 L 195.5 120 Q 192.2 118.9 193 121.5 L 191 121.5 L 190.5 123 L 189.5 122 L 185 126.5 L 185.5 128 L 184 128.5 Q 186.5 130 183 131.5 L 184 135.5 L 183 138.5 Q 186.1 140.3 184.5 142 L 186 142.5 L 185 143.5 L 189.5 148 L 191 147.5 L 191.5 149 L 193 148.5 Q 192.2 151.1 195.5 150 L 197.5 150 L 201.5 149 L 204.5 150 L 206.5 148 L 209 148.5 L 209 159.5 L 206.5 162 L 202.5 161 Q 200.8 163.8 194.5 162 L 191.5 161 Q 190 163.5 188.5 160 L 185.5 159 L 184 159.5 Q 184.8 157.3 182.5 158 L 175 152.5 Q 177.3 151.3 174.5 150 L 173 149.5 L 173.5 148 L 172 147.5 L 172.5 146 L 171 145.5 L 172 143 L 170 142.5 L 171 138.5 Q 168.8 137.2 170 132.5 L 171 128.5 L 170.5 127 Q 172.8 127.8 172 125.5 L 171.5 124 L 173 123.5 L 172.5 122 L 174 121.5 L 173.5 120 L 176 118.5 L 175 117.5 L 178.5 114 L 179.5 115 L 182.5 112 Q 184.8 112.8 184 110.5 L 186.5 110 L 190.5 108 Z " /><path fill="rgb(4,158,216)" stroke="rgb(4,158,216)" stroke-width="1" opacity="1" d="M 245.5 108 L 249.5 109 Q 250.8 106.7 255.5 108 L 259.5 109 L 261 108.5 Q 260.3 110.8 262.5 110 L 264 109.5 L 264.5 111 L 266 110.5 L 266.5 112 L 268 111.5 L 269.5 114 L 271 113.5 L 273.5 117 L 276 118.5 Q 273.5 120 277 121.5 L 278 126 L 280 126.5 L 279 128.5 Q 282.5 130 280 131.5 Q 278.2 137.8 281 139.5 L 279 142.5 L 279.5 144 Q 276.9 143.2 278 146.5 L 277.5 149 L 275 150.5 L 275.5 152 L 271 155.5 L 271 157 Q 267.2 155.5 268 158.5 L 266 158.5 L 265.5 160 L 264 159.5 L 263.5 161 L 261 160 L 260.5 162 L 256.5 161 Q 255 163.5 249.5 162 L 246.5 161 L 245.5 162 L 240.5 159 L 237.5 157 L 236 157.5 L 230.5 151 L 229 150.5 Q 231.5 149 228 147.5 Q 229.1 144.2 226.5 145 L 227 143.5 Q 227.8 141.3 225.5 142 L 226 140.5 L 226 129.5 L 225 128.5 L 227 128 L 226 125.5 L 228 125 Q 227.3 121.6 230 120.5 L 229.5 119 L 236 113.5 L 236.5 112 Q 238 114.5 239.5 111 L 242.5 109 Q 244 111.5 245.5 108 Z M 248 120 L 248 122 L 247 121 L 246 123 L 245 122 L 240 127 L 241 128 L 240 128 L 240 130 L 238 130 L 239 134 L 238 138 Q 237 141 240 140 L 239 142 L 241 142 L 240 144 L 245 148 L 246 147 L 246 149 L 248 148 L 248 150 L 252 149 L 255 150 L 260 149 L 261 147 L 263 147 Q 266 145 265 143 Q 267 144 266 142 L 266 140 Q 269 138 268 133 L 266 129 Q 267 126 265 127 L 265 126 Q 263 121 262 124 L 261 123 L 257 120 L 254 121 L 248 120 Z " /><path fill="rgb(0,152,214)" stroke="rgb(0,152,214)" stroke-width="1" opacity="1" d="M 77.5 1 L 79 1.5 L 75.5 4 L 77.5 1 Z " /><path fill="rgb(0,152,214)" stroke="rgb(0,152,214)" stroke-width="1" opacity="1" d="M 83.5 1 L 85.5 4 L 83.5 1 Z " /><path fill="rgb(0,152,214)" stroke="rgb(0,152,214)" stroke-width="1" opacity="1" d="M 225.5 1 L 223.5 4 L 225.5 1 Z " /><path fill="rgb(0,152,214)" stroke="rgb(0,152,214)" stroke-width="1" opacity="1" d="M 230.5 1 L 234 3.5 L 231.5 2 L 230.5 1 Z " /><path fill="rgb(0,152,214)" stroke="rgb(0,152,214)" stroke-width="1" opacity="1" d="M 86.5 5 L 87 79.5 L 86 79.5 L 86.5 5 Z " /><path fill="rgb(0,152,214)" stroke="rgb(0,152,214)" stroke-width="1" opacity="1" d="M 222.5 5 L 223 79.5 L 222 79.5 L 222.5 5 Z " /><path fill="rgb(0,152,214)" stroke="rgb(0,152,214)" stroke-width="1" opacity="1" d="M 74.5 6 L 75 78.5 L 74 78.5 L 74.5 6 Z " /><path fill="rgb(0,152,214)" stroke="rgb(0,152,214)" stroke-width="1" opacity="1" d="M 234.5 6 L 235 78.5 L 234 78.5 L 234.5 6 Z " /><path fill="rgb(0,152,214)" stroke="rgb(0,152,214)" stroke-width="1" opacity="1" d="M 47.5 27 L 48.5 29 L 47.5 27 Z " /><path fill="rgb(0,152,214)" stroke="rgb(0,152,214)" stroke-width="1" opacity="1" d="M 113.5 27 L 113 28.5 L 112.5 30 L 112 28.5 L 113.5 27 Z " /><path fill="rgb(0,152,214)" stroke="rgb(0,152,214)" stroke-width="1" opacity="1" d="M 121.5 27 L 122.5 29 L 121.5 27 Z " /><path fill="rgb(0,152,214)" stroke="rgb(0,152,214)" stroke-width="1" opacity="1" d="M 187.5 27 L 186.5 29 L 187.5 27 Z " /><path fill="rgb(0,152,214)" stroke="rgb(0,152,214)" stroke-width="1" opacity="1" d="M 195.5 27 L 197 29.5 L 196 29.5 L 195.5 27 Z " /><path fill="rgb(0,152,214)" stroke="rgb(0,152,214)" stroke-width="1" opacity="1" d="M 261.5 27 L 260.5 29 L 261.5 27 Z " /><path fill="rgb(0,152,214)" stroke="rgb(0,152,214)" stroke-width="1" opacity="1" d="M 49.5 30 L 50 66.5 L 49 66.5 L 49.5 30 Z " /><path fill="rgb(0,152,214)" stroke="rgb(0,152,214)" stroke-width="1" opacity="1" d="M 123.5 30 L 124 66.5 L 122 67.5 L 123 66.5 L 123.5 30 Z " /><path fill="rgb(0,152,214)" stroke="rgb(0,152,214)" stroke-width="1" opacity="1" d="M 185.5 30 L 186 66.5 L 187 67.5 L 185 66.5 L 185.5 30 Z " /><path fill="rgb(0,152,214)" stroke="rgb(0,152,214)" stroke-width="1" opacity="1" d="M 259.5 30 L 260 66.5 L 259 66.5 L 259.5 30 Z " /><path fill="rgb(0,152,214)" stroke="rgb(0,152,214)" stroke-width="1" opacity="1" d="M 37.5 31 L 38 64.5 L 37 64.5 L 37.5 31 Z " /><path fill="rgb(0,152,214)" stroke="rgb(0,152,214)" stroke-width="1" opacity="1" d="M 111.5 31 L 112 65.5 L 111 65.5 L 111.5 31 Z " /><path fill="rgb(0,152,214)" stroke="rgb(0,152,214)" stroke-width="1" opacity="1" d="M 197.5 31 L 198 65.5 L 197 65.5 L 197.5 31 Z " /><path fill="rgb(0,152,214)" stroke="rgb(0,152,214)" stroke-width="1" opacity="1" d="M 271.5 31 L 272 64.5 L 271 64.5 L 271.5 31 Z " /><path fill="rgb(0,152,214)" stroke="rgb(0,152,214)" stroke-width="1" opacity="1" d="M 153.5 44 L 156 44.5 L 153.5 45 L 153.5 44 Z " /><path fill="rgb(0,152,214)" stroke="rgb(0,152,214)" stroke-width="1" opacity="1" d="M 3.5 45 L 1.5 48 L 3.5 45 Z " /><path fill="rgb(0,152,214)" stroke="rgb(0,152,214)" stroke-width="1" opacity="1" d="M 305.5 45 L 307.5 48 L 305.5 45 Z " /><path fill="rgb(0,152,214)" stroke="rgb(0,152,214)" stroke-width="1" opacity="1" d="M 12.5 48 L 13 66.5 L 12 66.5 L 12.5 48 Z " /><path fill="rgb(0,152,214)" stroke="rgb(0,152,214)" stroke-width="1" opacity="1" d="M 296.5 48 L 297 66.5 L 296 66.5 L 296.5 48 Z " /><path fill="rgb(0,152,214)" stroke="rgb(0,152,214)" stroke-width="1" opacity="1" d="M 148.5 49 L 149 66.5 L 150 67.5 L 148 66.5 L 148.5 49 Z " /><path fill="rgb(0,152,214)" stroke="rgb(0,152,214)" stroke-width="1" opacity="1" d="M 160.5 49 L 161 66.5 L 159 67.5 L 160 66.5 L 160.5 49 Z " /><path fill="rgb(0,152,214)" stroke="rgb(0,152,214)" stroke-width="1" opacity="1" d="M 1.5 67 L 3.5 70 L 1.5 67 Z " /><path fill="rgb(0,152,214)" stroke="rgb(0,152,214)" stroke-width="1" opacity="1" d="M 307.5 67 L 305.5 70 L 307.5 67 Z " /><path fill="rgb(0,152,214)" stroke="rgb(0,152,214)" stroke-width="1" opacity="1" d="M 11.5 68 L 10.5 70 L 11.5 68 Z " /><path fill="rgb(0,152,214)" stroke="rgb(0,152,214)" stroke-width="1" opacity="1" d="M 48.5 68 L 47.5 70 L 48.5 68 Z " /><path fill="rgb(0,152,214)" stroke="rgb(0,152,214)" stroke-width="1" opacity="1" d="M 260.5 68 L 261.5 70 L 260.5 68 Z " /><path fill="rgb(0,152,214)" stroke="rgb(0,152,214)" stroke-width="1" opacity="1" d="M 297.5 68 L 298.5 70 L 297.5 68 Z " /><path fill="rgb(0,152,214)" stroke="rgb(0,152,214)" stroke-width="1" opacity="1" d="M 5.5 70 L 9 70.5 L 5.5 71 L 5.5 70 Z " /><path fill="rgb(0,152,214)" stroke="rgb(0,152,214)" stroke-width="1" opacity="1" d="M 42.5 70 L 46 70.5 L 42.5 71 L 42.5 70 Z " /><path fill="rgb(0,152,214)" stroke="rgb(0,152,214)" stroke-width="1" opacity="1" d="M 116.5 70 L 120 70.5 L 116.5 71 L 116.5 70 Z " /><path fill="rgb(0,152,214)" stroke="rgb(0,152,214)" stroke-width="1" opacity="1" d="M 152.5 70 L 157 70.5 L 152.5 71 L 152.5 70 Z " /><path fill="rgb(0,152,214)" stroke="rgb(0,152,214)" stroke-width="1" opacity="1" d="M 189.5 70 L 193 70.5 L 189.5 71 L 189.5 70 Z " /><path fill="rgb(0,152,214)" stroke="rgb(0,152,214)" stroke-width="1" opacity="1" d="M 263.5 70 L 267 70.5 L 263.5 71 L 263.5 70 Z " /><path fill="rgb(0,152,214)" stroke="rgb(0,152,214)" stroke-width="1" opacity="1" d="M 300.5 70 L 304 70.5 L 300.5 71 L 300.5 70 Z " /><path fill="rgb(0,152,214)" stroke="rgb(0,152,214)" stroke-width="1" opacity="1" d="M 75.5 81 L 76.5 83 L 75.5 81 Z " /><path fill="rgb(0,152,214)" stroke="rgb(0,152,214)" stroke-width="1" opacity="1" d="M 85.5 81 L 83.5 84 L 82 83.5 L 85.5 81 Z " /><path fill="rgb(0,152,214)" stroke="rgb(0,152,214)" stroke-width="1" opacity="1" d="M 223.5 81 L 227 83.5 L 225.5 84 L 223.5 81 Z " /><path fill="rgb(0,152,214)" stroke="rgb(0,152,214)" stroke-width="1" opacity="1" d="M 233.5 81 L 232.5 83 L 233.5 81 Z " /><path fill="rgb(0,152,214)" stroke="rgb(0,152,214)" stroke-width="1" opacity="1" d="M 49.5 108 L 53 108.5 L 49.5 109 L 49.5 108 Z " /><path fill="rgb(0,152,214)" stroke="rgb(0,152,214)" stroke-width="1" opacity="1" d="M 60.5 108 L 64 108.5 L 60.5 109 L 60.5 108 Z " /><path fill="rgb(0,152,214)" stroke="rgb(0,152,214)" stroke-width="1" opacity="1" d="M 132.5 108 L 136 108.5 L 132.5 109 L 132.5 108 Z " /><path fill="rgb(0,152,214)" stroke="rgb(0,152,214)" stroke-width="1" opacity="1" d="M 143.5 108 L 148 108.5 L 143.5 109 L 143.5 108 Z " /><path fill="rgb(0,152,214)" stroke="rgb(0,152,214)" stroke-width="1" opacity="1" d="M 191.5 108 L 194 108.5 L 191.5 109 L 191.5 108 Z " /><path fill="rgb(0,152,214)" stroke="rgb(0,152,214)" stroke-width="1" opacity="1" d="M 201.5 108 L 206 108.5 L 201.5 109 L 201.5 108 Z " /><path fill="rgb(0,152,214)" stroke="rgb(0,152,214)" stroke-width="1" opacity="1" d="M 246.5 108 L 250 108.5 L 246.5 109 L 246.5 108 Z " /><path fill="rgb(0,152,214)" stroke="rgb(0,152,214)" stroke-width="1" opacity="1" d="M 256.5 108 L 260 108.5 L 256.5 109 L 256.5 108 Z " /><path fill="rgb(0,152,214)" stroke="rgb(0,152,214)" stroke-width="1" opacity="1" d="M 150.5 109 L 152 109.5 L 152 119.5 L 151 119.5 Q 151.8 111.3 150.5 109 Z " /><path fill="rgb(0,152,214)" stroke="rgb(0,152,214)" stroke-width="1" opacity="1" d="M 207.5 109 L 210 109.5 L 210 122.5 L 209 122.5 L 209 110.5 L 207.5 110 L 207.5 109 Z " /><path fill="rgb(0,152,214)" stroke="rgb(0,152,214)" stroke-width="1" opacity="1" d="M 43.5 110 L 45 110.5 L 42.5 112 L 43.5 110 Z " /><path fill="rgb(0,152,214)" stroke="rgb(0,152,214)" stroke-width="1" opacity="1" d="M 127.5 110 L 126.5 112 L 127.5 110 Z " /><path fill="rgb(0,152,214)" stroke="rgb(0,152,214)" stroke-width="1" opacity="1" d="M 238.5 111 L 237.5 113 L 238.5 111 Z " /><path fill="rgb(0,152,214)" stroke="rgb(0,152,214)" stroke-width="1" opacity="1" d="M 124.5 112 L 123.5 114 L 124.5 112 Z " /><path fill="rgb(0,152,214)" stroke="rgb(0,152,214)" stroke-width="1" opacity="1" d="M 181.5 112 L 179.5 115 L 181.5 112 Z " /><path fill="rgb(0,152,214)" stroke="rgb(0,152,214)" stroke-width="1" opacity="1" d="M 268.5 112 L 269.5 114 L 268.5 112 Z " /><path fill="rgb(0,152,214)" stroke="rgb(0,152,214)" stroke-width="1" opacity="1" d="M 235.5 113 L 230.5 119 L 235.5 113 Z " /><path fill="rgb(0,152,214)" stroke="rgb(0,152,214)" stroke-width="1" opacity="1" d="M 37.5 114 L 34.5 118 L 37.5 114 Z " /><path fill="rgb(0,152,214)" stroke="rgb(0,152,214)" stroke-width="1" opacity="1" d="M 271.5 114 L 273.5 117 L 271.5 114 Z " /><path fill="rgb(0,152,214)" stroke="rgb(0,152,214)" stroke-width="1" opacity="1" d="M 122.5 115 L 121.5 117 L 122.5 115 Z " /><path fill="rgb(0,152,214)" stroke="rgb(0,152,214)" stroke-width="1" opacity="1" d="M 120.5 118 L 121 120.5 L 120 120.5 L 120.5 118 Z " /><path fill="rgb(0,152,214)" stroke="rgb(0,152,214)" stroke-width="1" opacity="1" d="M 146.5 118 L 149 118.5 L 146.5 119 L 146.5 118 Z " /><path fill="rgb(0,152,214)" stroke="rgb(0,152,214)" stroke-width="1" opacity="1" d="M 175.5 118 L 174.5 120 L 175.5 118 Z " /><path fill="rgb(0,152,214)" stroke="rgb(0,152,214)" stroke-width="1" opacity="1" d="M 33.5 119 L 32.5 121 L 33.5 119 Z " /><path fill="rgb(0,152,214)" stroke="rgb(0,152,214)" stroke-width="1" opacity="1" d="M 275.5 119 L 276.5 121 L 275.5 119 Z " /><path fill="rgb(0,152,214)" stroke="rgb(0,152,214)" stroke-width="1" opacity="1" d="M 61.5 120 L 64 120.5 L 61.5 121 L 61.5 120 Z " /><path fill="rgb(0,152,214)" stroke="rgb(0,152,214)" stroke-width="1" opacity="1" d="M 193.5 120 L 196 120.5 L 193.5 121 L 193.5 120 Z " /><path fill="rgb(0,152,214)" stroke="rgb(0,152,214)" stroke-width="1" opacity="1" d="M 229.5 120 L 228.5 122 L 229.5 120 Z " /><path fill="rgb(0,152,214)" stroke="rgb(0,152,214)" stroke-width="1" opacity="1" d="M 248.5 120 L 251 120.5 L 248.5 121 L 248.5 120 Z " /><path fill="rgb(0,152,214)" stroke="rgb(0,152,214)" stroke-width="1" opacity="1" d="M 254.5 120 L 257 120.5 L 254.5 121 L 254.5 120 Z " /><path fill="rgb(0,152,214)" stroke="rgb(0,152,214)" stroke-width="1" opacity="1" d="M 258.5 121 L 261 122.5 L 259.5 122 L 258.5 121 Z " /><path fill="rgb(0,152,214)" stroke="rgb(0,152,214)" stroke-width="1" opacity="1" d="M 189.5 122 L 185.5 127 L 189.5 122 Z " /><path fill="rgb(0,152,214)" stroke="rgb(0,152,214)" stroke-width="1" opacity="1" d="M 244.5 122 L 240.5 127 L 244.5 122 Z " /><path fill="rgb(0,152,214)" stroke="rgb(0,152,214)" stroke-width="1" opacity="1" d="M 262.5 123 L 264.5 126 L 262.5 123 Z " /><path fill="rgb(0,152,214)" stroke="rgb(0,152,214)" stroke-width="1" opacity="1" d="M 133.5 125 L 135.5 128 L 133.5 125 Z " /><path fill="rgb(0,152,214)" stroke="rgb(0,152,214)" stroke-width="1" opacity="1" d="M 44.5 126 L 43.5 128 L 44.5 126 Z " /><path fill="rgb(0,152,214)" stroke="rgb(0,152,214)" stroke-width="1" opacity="1" d="M 170.5 128 L 171 131.5 L 170 131.5 L 170.5 128 Z " /><path fill="rgb(0,152,214)" stroke="rgb(0,152,214)" stroke-width="1" opacity="1" d="M 225.5 129 L 226 140.5 L 225 140.5 L 225.5 129 Z " /><path fill="rgb(0,152,214)" stroke="rgb(0,152,214)" stroke-width="1" opacity="1" d="M 238.5 130 L 239 132.5 L 238 132.5 L 238.5 130 Z " /><path fill="rgb(0,152,214)" stroke="rgb(0,152,214)" stroke-width="1" opacity="1" d="M 28.5 131 L 29 138.5 L 28 138.5 L 28.5 131 Z " /><path fill="rgb(0,152,214)" stroke="rgb(0,152,214)" stroke-width="1" opacity="1" d="M 183.5 131 L 184 133.5 L 183 133.5 L 183.5 131 Z " /><path fill="rgb(0,152,214)" stroke="rgb(0,152,214)" stroke-width="1" opacity="1" d="M 280.5 131 L 281 138.5 L 280 138.5 L 280.5 131 Z " /><path fill="rgb(0,152,214)" stroke="rgb(0,152,214)" stroke-width="1" opacity="1" d="M 122.5 132 L 125.5 136 L 122.5 132 Z " /><path fill="rgb(0,152,214)" stroke="rgb(0,152,214)" stroke-width="1" opacity="1" d="M 148.5 132 L 149.5 134 L 148.5 132 Z " /><path fill="rgb(0,152,214)" stroke="rgb(0,152,214)" stroke-width="1" opacity="1" d="M 267.5 132 L 268 137.5 L 267 137.5 L 267.5 132 Z " /><path fill="rgb(0,152,214)" stroke="rgb(0,152,214)" stroke-width="1" opacity="1" d="M 152.5 136 L 153.5 138 L 152.5 136 Z " /><path fill="rgb(0,152,214)" stroke="rgb(0,152,214)" stroke-width="1" opacity="1" d="M 183.5 136 L 184 138.5 L 183 138.5 L 183.5 136 Z " /><path fill="rgb(0,152,214)" stroke="rgb(0,152,214)" stroke-width="1" opacity="1" d="M 238.5 137 L 239 139.5 L 238 139.5 L 238.5 137 Z " /><path fill="rgb(0,152,214)" stroke="rgb(0,152,214)" stroke-width="1" opacity="1" d="M 170.5 138 L 171 141.5 L 170 141.5 L 170.5 138 Z " /><path fill="rgb(0,152,214)" stroke="rgb(0,152,214)" stroke-width="1" opacity="1" d="M 43.5 142 L 44.5 144 L 43.5 142 Z " /><path fill="rgb(0,152,214)" stroke="rgb(0,152,214)" stroke-width="1" opacity="1" d="M 155.5 143 L 156 146.5 L 155 146.5 L 155.5 143 Z " /><path fill="rgb(0,152,214)" stroke="rgb(0,152,214)" stroke-width="1" opacity="1" d="M 185.5 143 L 189.5 148 L 185.5 143 Z " /><path fill="rgb(0,152,214)" stroke="rgb(0,152,214)" stroke-width="1" opacity="1" d="M 240.5 143 L 244.5 148 L 240.5 143 Z " /><path fill="rgb(0,152,214)" stroke="rgb(0,152,214)" stroke-width="1" opacity="1" d="M 142.5 144 L 143 147.5 L 142 147.5 L 142.5 144 Z " /><path fill="rgb(0,152,214)" stroke="rgb(0,152,214)" stroke-width="1" opacity="1" d="M 264.5 144 L 262.5 147 L 264.5 144 Z " /><path fill="rgb(0,152,214)" stroke="rgb(0,152,214)" stroke-width="1" opacity="1" d="M 209.5 147 L 210 161 L 208 160.5 L 209 159.5 L 209.5 147 Z " /><path fill="rgb(0,152,214)" stroke="rgb(0,152,214)" stroke-width="1" opacity="1" d="M 260.5 147 L 259.5 149 L 258 148.5 L 260.5 147 Z " /><path fill="rgb(0,152,214)" stroke="rgb(0,152,214)" stroke-width="1" opacity="1" d="M 228.5 148 L 229.5 150 L 228.5 148 Z " /><path fill="rgb(0,152,214)" stroke="rgb(0,152,214)" stroke-width="1" opacity="1" d="M 61.5 149 L 64 149.5 L 61.5 150 L 61.5 149 Z " /><path fill="rgb(0,152,214)" stroke="rgb(0,152,214)" stroke-width="1" opacity="1" d="M 193.5 149 L 196 149.5 L 193.5 150 L 193.5 149 Z " /><path fill="rgb(0,152,214)" stroke="rgb(0,152,214)" stroke-width="1" opacity="1" d="M 202.5 149 L 205 149.5 L 202.5 150 L 202.5 149 Z " /><path fill="rgb(0,152,214)" stroke="rgb(0,152,214)" stroke-width="1" opacity="1" d="M 248.5 149 L 251 149.5 L 248.5 150 L 248.5 149 Z " /><path fill="rgb(0,152,214)" stroke="rgb(0,152,214)" stroke-width="1" opacity="1" d="M 254.5 149 L 257 149.5 L 254.5 150 L 254.5 149 Z " /><path fill="rgb(0,152,214)" stroke="rgb(0,152,214)" stroke-width="1" opacity="1" d="M 276.5 149 L 275.5 151 L 276.5 149 Z " /><path fill="rgb(0,152,214)" stroke="rgb(0,152,214)" stroke-width="1" opacity="1" d="M 120.5 150 L 124 150.5 L 120.5 151 L 120.5 150 Z " /><path fill="rgb(0,152,214)" stroke="rgb(0,152,214)" stroke-width="1" opacity="1" d="M 174.5 150 L 175.5 152 L 174.5 150 Z " /><path fill="rgb(0,152,214)" stroke="rgb(0,152,214)" stroke-width="1" opacity="1" d="M 126.5 151 L 137 151.5 L 126.5 152 L 126.5 151 Z " /><path fill="rgb(0,152,214)" stroke="rgb(0,152,214)" stroke-width="1" opacity="1" d="M 230.5 151 L 235.5 157 L 230.5 151 Z " /><path fill="rgb(0,152,214)" stroke="rgb(0,152,214)" stroke-width="1" opacity="1" d="M 34.5 152 L 38.5 157 L 34.5 152 Z " /><path fill="rgb(0,152,214)" stroke="rgb(0,152,214)" stroke-width="1" opacity="1" d="M 274.5 152 L 271.5 156 L 274.5 152 Z " /><path fill="rgb(0,152,214)" stroke="rgb(0,152,214)" stroke-width="1" opacity="1" d="M 152.5 154 L 148.5 159 L 152.5 154 Z " /><path fill="rgb(0,152,214)" stroke="rgb(0,152,214)" stroke-width="1" opacity="1" d="M 180.5 156 L 181.5 158 L 180.5 156 Z " /><path fill="rgb(0,152,214)" stroke="rgb(0,152,214)" stroke-width="1" opacity="1" d="M 237.5 157 L 238.5 159 L 237.5 157 Z " /><path fill="rgb(0,152,214)" stroke="rgb(0,152,214)" stroke-width="1" opacity="1" d="M 49.5 161 L 53 161.5 L 49.5 162 L 49.5 161 Z " /><path fill="rgb(0,152,214)" stroke="rgb(0,152,214)" stroke-width="1" opacity="1" d="M 60.5 161 L 64 161.5 L 60.5 162 L 60.5 161 Z " /><path fill="rgb(0,152,214)" stroke="rgb(0,152,214)" stroke-width="1" opacity="1" d="M 123.5 161 L 129 161.5 L 123.5 162 L 123.5 161 Z " /><path fill="rgb(0,152,214)" stroke="rgb(0,152,214)" stroke-width="1" opacity="1" d="M 137.5 161 L 141 161.5 L 137.5 162 L 137.5 161 Z " /><path fill="rgb(0,152,214)" stroke="rgb(0,152,214)" stroke-width="1" opacity="1" d="M 191.5 161 L 194 161.5 L 191.5 162 L 191.5 161 Z " /><path fill="rgb(0,152,214)" stroke="rgb(0,152,214)" stroke-width="1" opacity="1" d="M 202.5 161 L 206 161.5 L 202.5 162 L 202.5 161 Z " /><path fill="rgb(0,152,214)" stroke="rgb(0,152,214)" stroke-width="1" opacity="1" d="M 246.5 161 L 249 161.5 L 246.5 162 L 246.5 161 Z " /><path fill="rgb(0,152,214)" stroke="rgb(0,152,214)" stroke-width="1" opacity="1" d="M 256.5 161 L 260 161.5 L 256.5 162 L 256.5 161 Z " /><path fill="rgb(143,203,233)" stroke="rgb(143,203,233)" stroke-width="1" opacity="1" d="M 76.5 1 L 75.5 3 L 76.5 1 Z " /><path fill="rgb(143,203,233)" stroke="rgb(143,203,233)" stroke-width="1" opacity="1" d="M 232.5 1 L 233.5 3 L 232.5 1 Z " /><path fill="rgb(143,203,233)" stroke="rgb(143,203,233)" stroke-width="1" opacity="1" d="M 42.5 25 L 45 25.5 L 42.5 26 L 42.5 25 Z " /><path fill="rgb(143,203,233)" stroke="rgb(143,203,233)" stroke-width="1" opacity="1" d="M 116.5 25 L 119 25.5 L 116.5 26 L 116.5 25 Z " /><path fill="rgb(143,203,233)" stroke="rgb(143,203,233)" stroke-width="1" opacity="1" d="M 190.5 25 L 193 25.5 L 190.5 26 L 190.5 25 Z " /><path fill="rgb(143,203,233)" stroke="rgb(143,203,233)" stroke-width="1" opacity="1" d="M 264.5 25 L 267 25.5 L 264.5 26 L 264.5 25 Z " /><path fill="rgb(143,203,233)" stroke="rgb(143,203,233)" stroke-width="1" opacity="1" d="M 47.5 26 L 48.5 28 L 47.5 26 Z " /><path fill="rgb(143,203,233)" stroke="rgb(143,203,233)" stroke-width="1" opacity="1" d="M 261.5 26 L 260.5 28 L 261.5 26 Z " /><path fill="rgb(143,203,233)" stroke="rgb(143,203,233)" stroke-width="1" opacity="1" d="M 50.5 32 L 51 64.5 L 50 64.5 L 50.5 32 Z " /><path fill="rgb(143,203,233)" stroke="rgb(143,203,233)" stroke-width="1" opacity="1" d="M 258.5 32 L 259 64.5 L 258 64.5 L 258.5 32 Z " /><path fill="rgb(143,203,233)" stroke="rgb(143,203,233)" stroke-width="1" opacity="1" d="M 2.5 45 L 1.5 47 L 2.5 45 Z " /><path fill="rgb(143,203,233)" stroke="rgb(143,203,233)" stroke-width="1" opacity="1" d="M 306.5 45 L 307.5 47 L 306.5 45 Z " /><path fill="rgb(143,203,233)" stroke="rgb(143,203,233)" stroke-width="1" opacity="1" d="M 13.5 50 L 14 65.5 L 13 65.5 L 13.5 50 Z " /><path fill="rgb(143,203,233)" stroke="rgb(143,203,233)" stroke-width="1" opacity="1" d="M 295.5 50 L 296 65.5 L 295 65.5 L 295.5 50 Z " /><path fill="rgb(143,203,233)" stroke="rgb(143,203,233)" stroke-width="1" opacity="1" d="M 86.5 81 L 84.5 84 L 86.5 81 Z " /><path fill="rgb(143,203,233)" stroke="rgb(143,203,233)" stroke-width="1" opacity="1" d="M 222.5 81 L 224.5 84 L 222.5 81 Z " /><path fill="rgb(143,203,233)" stroke="rgb(143,203,233)" stroke-width="1" opacity="1" d="M 51.5 107 L 62 107.5 L 51.5 108 L 51.5 107 Z " /><path fill="rgb(143,203,233)" stroke="rgb(143,203,233)" stroke-width="1" opacity="1" d="M 134.5 107 L 145 107.5 L 134.5 108 L 134.5 107 Z " /><path fill="rgb(143,203,233)" stroke="rgb(143,203,233)" stroke-width="1" opacity="1" d="M 193.5 107 L 203 107.5 L 193.5 108 L 193.5 107 Z " /><path fill="rgb(143,203,233)" stroke="rgb(143,203,233)" stroke-width="1" opacity="1" d="M 248.5 107 L 258 107.5 L 248.5 108 L 248.5 107 Z " /><path fill="rgb(143,203,233)" stroke="rgb(143,203,233)" stroke-width="1" opacity="1" d="M 87.5 108 L 88 161.5 L 87 161.5 L 87.5 108 Z " /><path fill="rgb(143,203,233)" stroke="rgb(143,203,233)" stroke-width="1" opacity="1" d="M 68.5 109 L 69 121.5 L 68 121.5 L 68.5 109 Z " /><path fill="rgb(143,203,233)" stroke="rgb(143,203,233)" stroke-width="1" opacity="1" d="M 40.5 111 L 39.5 113 L 40.5 111 Z " /><path fill="rgb(143,203,233)" stroke="rgb(143,203,233)" stroke-width="1" opacity="1" d="M 180.5 112 L 179.5 114 L 180.5 112 Z " /><path fill="rgb(143,203,233)" stroke="rgb(143,203,233)" stroke-width="1" opacity="1" d="M 234.5 113 L 230.5 118 L 234.5 113 Z " /><path fill="rgb(143,203,233)" stroke="rgb(143,203,233)" stroke-width="1" opacity="1" d="M 36.5 114 L 35.5 116 L 36.5 114 Z " /><path fill="rgb(143,203,233)" stroke="rgb(143,203,233)" stroke-width="1" opacity="1" d="M 56.5 120 L 60 120.5 L 56.5 121 L 56.5 120 Z " /><path fill="rgb(143,203,233)" stroke="rgb(143,203,233)" stroke-width="1" opacity="1" d="M 197.5 120 L 201 120.5 L 197.5 121 L 197.5 120 Z " /><path fill="rgb(143,203,233)" stroke="rgb(143,203,233)" stroke-width="1" opacity="1" d="M 189.5 123 L 186.5 127 L 189.5 123 Z " /><path fill="rgb(143,203,233)" stroke="rgb(143,203,233)" stroke-width="1" opacity="1" d="M 262.5 124 L 263.5 126 L 262.5 124 Z " /><path fill="rgb(143,203,233)" stroke="rgb(143,203,233)" stroke-width="1" opacity="1" d="M 169.5 130 L 170 139.5 L 169 139.5 L 169.5 130 Z " /><path fill="rgb(143,203,233)" stroke="rgb(143,203,233)" stroke-width="1" opacity="1" d="M 42.5 132 L 43 137.5 L 42 137.5 L 42.5 132 Z " /><path fill="rgb(143,203,233)" stroke="rgb(143,203,233)" stroke-width="1" opacity="1" d="M 224.5 132 L 225 137.5 L 224 137.5 L 224.5 132 Z " /><path fill="rgb(143,203,233)" stroke="rgb(143,203,233)" stroke-width="1" opacity="1" d="M 122.5 133 L 124.5 136 L 122.5 133 Z " /><path fill="rgb(143,203,233)" stroke="rgb(143,203,233)" stroke-width="1" opacity="1" d="M 186.5 143 L 189.5 147 L 186.5 143 Z " /><path fill="rgb(143,203,233)" stroke="rgb(143,203,233)" stroke-width="1" opacity="1" d="M 263.5 144 L 262.5 146 L 263.5 144 Z " /><path fill="rgb(143,203,233)" stroke="rgb(143,203,233)" stroke-width="1" opacity="1" d="M 68.5 148 L 69 160.5 L 68 160.5 L 68.5 148 Z " /><path fill="rgb(143,203,233)" stroke="rgb(143,203,233)" stroke-width="1" opacity="1" d="M 55.5 149 L 60 149.5 L 55.5 150 L 55.5 149 Z " /><path fill="rgb(143,203,233)" stroke="rgb(143,203,233)" stroke-width="1" opacity="1" d="M 119 149 L 122 149.5 L 120 150 L 120 160.5 L 121.5 161 L 121.5 162 L 119 160.5 L 119 149 Z " /><path fill="rgb(143,203,233)" stroke="rgb(143,203,233)" stroke-width="1" opacity="1" d="M 197.5 149 L 201 149.5 L 197.5 150 L 197.5 149 Z " /><path fill="rgb(143,203,233)" stroke="rgb(143,203,233)" stroke-width="1" opacity="1" d="M 230.5 152 L 234.5 157 L 230.5 152 Z " /><path fill="rgb(143,203,233)" stroke="rgb(143,203,233)" stroke-width="1" opacity="1" d="M 34.5 153 L 36.5 156 L 34.5 153 Z " /><path fill="rgb(143,203,233)" stroke="rgb(143,203,233)" stroke-width="1" opacity="1" d="M 152.5 155 L 150.5 158 L 152.5 155 Z " /><path fill="rgb(143,203,233)" stroke="rgb(143,203,233)" stroke-width="1" opacity="1" d="M 179.5 156 L 180.5 158 L 179.5 156 Z " /><path fill="rgb(143,203,233)" stroke="rgb(143,203,233)" stroke-width="1" opacity="1" d="M 52.5 162 L 62 162.5 L 52.5 163 L 52.5 162 Z " /><path fill="rgb(143,203,233)" stroke="rgb(143,203,233)" stroke-width="1" opacity="1" d="M 127.5 162 L 139 162.5 L 127.5 163 L 127.5 162 Z " /><path fill="rgb(143,203,233)" stroke="rgb(143,203,233)" stroke-width="1" opacity="1" d="M 193.5 162 L 203 162.5 L 193.5 163 L 193.5 162 Z " /><path fill="rgb(143,203,233)" stroke="rgb(143,203,233)" stroke-width="1" opacity="1" d="M 248.5 162 L 258 162.5 L 248.5 163 L 248.5 162 Z " /></svg>